# File exported by Houdini 22.0.368 (www.sidefx.com)
# 1002 points
# 6000 vertices
# 2000 primitives
# Bounds: [-0.584038496, -0.566126287, -0.548724473] to [0.568861127, 0.505939424, 0.777685642]
g 
v 1.48136277e-08 1.72753686e-10 -0.442168981
v -5.46235812e-09 0.0489093289 -0.437159777
v 0.0494594723 0.0160703827 -0.466370106
v 1.53572337e-08 0.098035641 -0.434736967
v 0.0510025397 0.0701990277 -0.45496124
v 0.106721058 0.0346758291 -0.498610407
v 2.02255865e-10 0.149853274 -0.434255123
v 0.0520141199 0.120683223 -0.437366396
v 0.103096478 0.0905905589 -0.456863463
v 0.15531075 0.0504636019 -0.473454177
v 2.39363818e-09 0.203292832 -0.428595334
v 0.0540470891 0.172678426 -0.427811742
v 0.102406926 0.140951082 -0.428983122
v 0.154023111 0.109329805 -0.4466452
v 0.201458588 0.0654579699 -0.446619511
v 3.74947504e-11 0.247032419 -0.399706781
v 0.0554248281 0.223242909 -0.411537439
v 0.106143989 0.195014402 -0.418342888
v 0.153244182 0.16181691 -0.419919133
v 0.197522312 0.123138182 -0.416449904
v 0.236861393 0.0769610479 -0.402972668
v 6.62579591e-09 0.285910487 -0.365187049
v 0.0546994172 0.264671683 -0.378598243
v 0.110888481 0.252399713 -0.408391118
v 0.160753071 0.221257761 -0.412805438
v 0.209096149 0.186402634 -0.41496709
v 0.238838345 0.136082307 -0.385074347
v 0.272425115 0.0885164291 -0.365868479
v 3.15759996e-09 0.328442156 -0.33541137
v 0.0533636846 0.301487148 -0.341320664
v 0.10798914 0.291980326 -0.367826581
v 0.168828845 0.28387025 -0.401735842
v 0.2203051 0.251132965 -0.406341344
v 0.254845977 0.20121339 -0.383645535
v 0.276306093 0.147121504 -0.348964632
v 0.300899714 0.0977684185 -0.323140323
v -3.03070324e-09 0.364137679 -0.297649264
v 0.0542759635 0.352116406 -0.316922009
v 0.106164567 0.332481056 -0.329610765
v 0.162799045 0.322155625 -0.353240281
v 0.218512833 0.300757319 -0.368133903
v 0.260385931 0.258654773 -0.359163761
v 0.28626743 0.205765247 -0.332934707
v 0.302208841 0.152454793 -0.301119179
v 0.317692906 0.103224844 -0.273209006
v -1.43535836e-10 0.371204704 -0.240573987
v 0.0516139492 0.38008073 -0.269465834
v 0.103731021 0.370389342 -0.287095994
v 0.157356396 0.358191609 -0.303949475
v 0.2113702 0.339672923 -0.317065507
v 0.27668193 0.328485548 -0.34027648
v 0.299495757 0.266989857 -0.311681151
v 0.319279164 0.212494567 -0.286267966
v 0.322191656 0.155327424 -0.251324594
v 0.333689451 0.108422481 -0.227557212
v 0 0.380647182 -0.190323353
v 0.0461060368 0.380673617 -0.20708552
v 0.0922973081 0.371445686 -0.219251499
v 0.141486704 0.365021318 -0.2339084
v 0.202766314 0.372602791 -0.259960234
v 0.258881301 0.356319755 -0.272203654
v 0.296722591 0.3132689 -0.26442489
v 0.324585766 0.264531285 -0.250177979
v 0.322579026 0.201224089 -0.217795417
v 0.331338763 0.153972745 -0.197351933
v 0.344241321 0.111850969 -0.180978194
v 0.0302086417 -0.0415786132 -0.460606545
v 0.0867477432 -0.0281860195 -0.478454798
v 0.0612738915 -0.0843362808 -0.46271351
v 0.147113934 -0.0136193708 -0.491994381
v 0.123188511 -0.0731558278 -0.477039695
v 0.0915943608 -0.12606883 -0.451672733
v 0.203341961 0.00230935728 -0.480967164
v 0.188275337 -0.0611743145 -0.487667412
v 0.156612709 -0.116482183 -0.461584121
v 0.121914841 -0.167801395 -0.437300056
v 0.240793735 0.0171300415 -0.431931943
v 0.229963124 -0.042847313 -0.440798938
v 0.213384092 -0.101533778 -0.445308805
v 0.180299714 -0.151627973 -0.421503752
v 0.146499902 -0.201639816 -0.403279632
v 0.281937182 0.0312948562 -0.397383928
v 0.289722413 -0.0289793871 -0.431347191
v 0.265749365 -0.0863471329 -0.421773463
v 0.233229443 -0.136179805 -0.400076091
v 0.199910507 -0.182052761 -0.378765017
v 0.169204384 -0.232889861 -0.367683232
v 0.308991849 0.0432390571 -0.347816199
v 0.315259755 -0.0126378471 -0.372789979
v 0.313128769 -0.0708106905 -0.390495628
v 0.282842368 -0.121554583 -0.37447226
v 0.25107038 -0.167442217 -0.356575429
v 0.222517461 -0.214614809 -0.344637275
v 0.189546958 -0.260889024 -0.32934016
v 0.327847898 0.0532640889 -0.295487702
v 0.355582982 0.00181598193 -0.335802376
v 0.345982313 -0.0536255166 -0.342653334
v 0.319664657 -0.103865258 -0.332913458
v 0.29304719 -0.150524065 -0.322468162
v 0.270695657 -0.198759899 -0.317177653
v 0.24139972 -0.243364513 -0.304936528
v 0.211665362 -0.291332394 -0.294375777
v 0.346962243 0.0628059506 -0.247766629
v 0.379207373 0.015589254 -0.283293426
v 0.384225309 -0.0384623557 -0.300014406
v 0.363657385 -0.0899510682 -0.296981394
v 0.338378876 -0.137446329 -0.289572746
v 0.305748999 -0.178536072 -0.275188506
v 0.278050989 -0.21999675 -0.264722019
v 0.253110528 -0.264525175 -0.257234275
v 0.227843702 -0.313599944 -0.251084745
v 0.35796988 0.0700697973 -0.197027117
v 0.377289891 0.0266677029 -0.216672152
v 0.405033201 -0.0225232504 -0.242373884
v 0.412066936 -0.0767819881 -0.256870687
v 0.389538944 -0.126568764 -0.253137529
v 0.351320982 -0.167129591 -0.23841998
v 0.315870464 -0.20362851 -0.224553347
v 0.285860568 -0.240206957 -0.213899851
v 0.260477722 -0.280241877 -0.206626207
v 0.234250829 -0.32241863 -0.199265465
v -0.0289083961 -0.0397889987 -0.439731926
v 1.61515636e-08 -0.0885819197 -0.46454221
v -0.0610936321 -0.084088169 -0.461331844
v 0.0310048293 -0.137573138 -0.469513714
v -0.0323766544 -0.14355059 -0.490031898
v -0.101740867 -0.140034318 -0.501981854
v 0.0625323951 -0.185372666 -0.46266219
v -9.4119379e-09 -0.204581112 -0.504024029
v -0.0706055462 -0.208957598 -0.521774411
v -0.144176245 -0.19844158 -0.517296433
v 0.0916708186 -0.226078272 -0.436509132
v 0.0334892608 -0.255988538 -0.486592263
v -0.03587614 -0.274049431 -0.520996094
v -0.109358728 -0.269175261 -0.519980311
v -0.199335814 -0.274362266 -0.548724473
v 0.116859876 -0.25840947 -0.397294343
v 0.0621877797 -0.285498142 -0.432865977
v 1.08149156e-09 -0.326632768 -0.493094444
v -0.0708986148 -0.325155437 -0.493062556
v -0.15467082 -0.341187388 -0.524837673
v -0.236102432 -0.324967086 -0.512833893
v 0.140829191 -0.289108813 -0.358493865
v 0.0901006684 -0.320338577 -0.393168777
v 0.0315533467 -0.342762858 -0.418673277
v -0.0320253707 -0.347862095 -0.42489934
v -0.100433499 -0.356844753 -0.437976152
v -0.178067654 -0.364961594 -0.452654004
v -0.253160328 -0.348445237 -0.439484209
v 0.16238156 -0.315462679 -0.315613598
v 0.113389678 -0.3429842 -0.341132015
v 0.0600426793 -0.371047437 -0.367811739
v -8.49798912e-11 -0.366054773 -0.362499684
v -0.0609389395 -0.37656647 -0.373272419
v -0.126585871 -0.382729709 -0.380609244
v -0.193403497 -0.375398338 -0.375566006
v -0.276959062 -0.381201446 -0.384586036
v 0.179932743 -0.33464694 -0.2669321
v 0.127874911 -0.344713151 -0.274472296
v 0.0802323669 -0.368501097 -0.293042272
v 0.0267419834 -0.372463614 -0.296038657
v -0.0268988013 -0.374644965 -0.29776448
v -0.0816966817 -0.375216752 -0.298360318
v -0.146265537 -0.394184798 -0.313726306
v -0.22075446 -0.410338521 -0.327189893
v -0.309610665 -0.426142544 -0.340097666
v 0.189106837 -0.339767963 -0.209987879
v 0.140261129 -0.346455276 -0.214120895
v 0.0915887207 -0.346592337 -0.214205593
v 0.0471120588 -0.360878766 -0.223035112
v -2.55014398e-10 -0.367245197 -0.226969793
v -0.0494099781 -0.378352851 -0.233834714
v -0.107304648 -0.405534595 -0.250633895
v -0.17605722 -0.4338817 -0.268153399
v -0.273473293 -0.489098012 -0.302278936
v -0.374400467 -0.515318036 -0.318483829
v -0.0450212248 0.0146283098 -0.422332674
v -0.0767590925 -0.0249405224 -0.422897339
v -0.0897648484 0.0291664414 -0.418287218
v -0.114845179 -0.0681574047 -0.444500089
v -0.124141939 -0.011579507 -0.414836228
v -0.139586985 0.0453546457 -0.425270617
v -0.160199806 -0.119175069 -0.472220302
v -0.166537747 -0.0541113541 -0.431166232
v -0.176309228 0.00188653427 -0.416857094
v -0.188301995 0.0611831285 -0.417399943
v -0.207368508 -0.17459558 -0.485111505
v -0.214022174 -0.101838522 -0.446644098
v -0.233725697 -0.0435427353 -0.448024809
v -0.232574046 0.0165099353 -0.41716221
v -0.234225482 0.0761045888 -0.398488194
v -0.259729475 -0.236962467 -0.492566645
v -0.282193929 -0.164893821 -0.484231293
v -0.29538545 -0.0959764868 -0.468851894
v -0.287891716 -0.0287995134 -0.428619951
v -0.280669451 0.0311493054 -0.395595551
v -0.274289876 0.0891223252 -0.368369043
v -0.29613781 -0.286077291 -0.458966196
v -0.322921455 -0.215549201 -0.458694637
v -0.355651319 -0.152894005 -0.470843911
v -0.350619525 -0.0792673379 -0.437221318
v -0.332957596 -0.0133165354 -0.393706411
v -0.330390096 0.0463027321 -0.371903688
v -0.330209315 0.107291691 -0.354504555
v -0.323473126 -0.326491803 -0.408709764
v -0.35430789 -0.260329902 -0.415058583
v -0.371669114 -0.190971822 -0.408817738
v -0.423727483 -0.137677297 -0.441040695
v -0.421460152 -0.0652777329 -0.417240232
v -0.409247696 0.00215975195 -0.386390567
v -0.409473628 0.0667267516 -0.368978798
v -0.401014328 0.130297676 -0.344355673
v -0.365801841 -0.382609427 -0.371606082
v -0.392591476 -0.310754776 -0.373411119
v -0.402665108 -0.235170618 -0.362037838
v -0.427568316 -0.173683465 -0.365540177
v -0.452629149 -0.111950167 -0.36930424
v -0.457120061 -0.0457373895 -0.356693923
v -0.466521204 0.0192368757 -0.348288685
v -0.449526131 0.0815166309 -0.320818186
v -0.429900318 0.139683306 -0.292288184
v -0.439592719 -0.475471795 -0.349192798
v -0.462188303 -0.389565349 -0.346067488
v -0.4629637 -0.29889524 -0.329206824
v -0.454398125 -0.216276363 -0.308393359
v -0.464162797 -0.150815487 -0.301631004
v -0.464551628 -0.0865173563 -0.28957969
v -0.457481682 -0.0253365561 -0.273739606
v -0.457597405 0.0326585509 -0.262731552
v -0.452895403 0.0893222168 -0.249146014
v -0.467846632 0.15201284 -0.245961294
v -0.0480249524 0.0661007017 -0.428163946
v -0.0985934287 0.0866658241 -0.43687886
v -0.0526989624 0.12229082 -0.443212509
v -0.150476828 0.106837071 -0.436366379
v -0.108430699 0.149242133 -0.454317123
v -0.0555609278 0.177598044 -0.440017283
v -0.201101378 0.125347421 -0.423986137
v -0.160746962 0.169715345 -0.440491706
v -0.110501491 0.203049451 -0.435604453
v -0.0579458326 0.233595699 -0.430629402
v -0.241932154 0.137829155 -0.390053749
v -0.214377865 0.191093862 -0.425440431
v -0.16750744 0.230554342 -0.430166394
v -0.113289699 0.257892877 -0.417279243
v -0.0565830395 0.273971319 -0.391896397
v -0.287811875 0.153201222 -0.363465548
v -0.254700392 0.201098844 -0.383426726
v -0.219418257 0.250123113 -0.404707342
v -0.162105843 0.27255249 -0.38573128
v -0.110762522 0.299519718 -0.377313942
v -0.0549124554 0.310405254 -0.351406902
v -0.350722343 0.176785067 -0.349331796
v -0.317968816 0.228488818 -0.36970219
v -0.281871587 0.27997309 -0.388723463
v -0.218561247 0.300823957 -0.368215293
v -0.162643254 0.321846902 -0.352902561
v -0.104295641 0.326601207 -0.323794872
v -0.05204935 0.337453306 -0.303746849
v -0.409242392 0.197149798 -0.318994462
v -0.381972313 0.254160196 -0.342253447
v -0.350095987 0.312072068 -0.364115417
v -0.277957499 0.329999715 -0.341838777
v -0.219030604 0.351985484 -0.328508437
v -0.154973343 0.352762699 -0.299362212
v -0.098488234 0.351621717 -0.272603393
v -0.0498464108 0.366940886 -0.260175943
v -0.452995569 0.209504947 -0.269312352
v -0.431341946 0.268486023 -0.290936738
v -0.401248634 0.326767772 -0.3091456
v -0.33940807 0.358263165 -0.302428395
v -0.27570495 0.379475564 -0.289893061
v -0.205408394 0.377467185 -0.263352215
v -0.145153329 0.374538273 -0.239998832
v -0.0945527554 0.380674273 -0.224685118
v -0.0460184105 0.379908681 -0.206671223
v -0.0288457274 0.410163701 -0.160692662
v -0.0782363266 0.396968007 -0.17006278
v -0.0610779785 0.450116038 -0.131068498
v -0.133324504 0.404170245 -0.188226879
v -0.116242707 0.433303267 -0.139513075
v -0.0939416513 0.472222656 -0.091549851
v -0.201586813 0.425446719 -0.21527423
v -0.184382454 0.453925103 -0.159981474
v -0.157079399 0.466340244 -0.102547176
v -0.125454366 0.479731321 -0.0468111485
v -0.279188246 0.439082325 -0.241931111
v -0.276189715 0.496648848 -0.190866947
v -0.232258528 0.483064711 -0.117935792
v -0.197957963 0.488628864 -0.0580377132
v -0.156545058 0.481796205 1.80511184e-09
v -0.349785179 0.423561126 -0.255478323
v -0.339444995 0.46720612 -0.195740625
v -0.312299132 0.488765538 -0.1309333
v -0.277418375 0.498258978 -0.0679034144
v -0.230724946 0.485277534 -0.00747329416
v -0.181004778 0.463181615 0.0469468758
v -0.393757761 0.371677399 -0.247749671
v -0.411957145 0.44296205 -0.203205019
v -0.415957898 0.505939424 -0.147868112
v -0.362820327 0.499379486 -0.0752987862
v -0.301419556 0.472894073 -0.0115511026
v -0.248103887 0.45087865 0.0422753952
v -0.20128496 0.436647445 0.0914219171
v -0.444173306 0.325567901 -0.243784726
v -0.479810536 0.403925866 -0.204882458
v -0.493643105 0.471168548 -0.150142252
v -0.459946036 0.494973302 -0.0804013461
v -0.392090857 0.475822866 -0.0126520144
v -0.316697121 0.435896307 0.0421449281
v -0.26779598 0.423387796 0.0902867466
v -0.222426087 0.413506806 0.135525048
v -0.494796902 0.275640428 -0.238191515
v -0.543850899 0.352957875 -0.201597631
v -0.554039359 0.411221355 -0.14365977
v -0.548286259 0.460507452 -0.0786453262
v -0.477908611 0.452120692 -0.00900902227
v -0.391401857 0.417016983 0.04706157
v -0.32922852 0.396731675 0.0929358527
v -0.288665444 0.397313982 0.13874504
v -0.243838996 0.390243471 0.180107728
v -0.500502646 0.201958597 -0.211639166
v -0.528841555 0.254559994 -0.169734925
v -0.570064187 0.319091976 -0.124466702
v -0.584038496 0.37421605 -0.0655985475
v -0.555411994 0.403530538 4.35420731e-08
v -0.472117513 0.387094676 0.057702858
v -0.398173541 0.368125737 0.103197098
v -0.347107589 0.363004625 0.145060033
v -0.305631965 0.364296883 0.186197326
v -0.26578176 0.365817189 0.226087257
v -0.476640701 0.118929893 -0.192432106
v -0.454737306 0.0547251478 -0.192555293
v -0.462983876 0.0839391425 -0.135816008
v -0.453892976 -0.00199577585 -0.200795323
v -0.444621593 0.0231613591 -0.138456121
v -0.455220282 0.0538480952 -0.0871278122
v -0.467816651 -0.0603655241 -0.215690792
v -0.451764047 -0.0324798971 -0.147872776
v -0.447730601 -0.00489356928 -0.0933379456
v -0.451027036 0.0263437685 -0.0426249839
v -0.489070356 -0.12603052 -0.234792799
v -0.482494473 -0.0945149884 -0.165066421
v -0.474416047 -0.0640211552 -0.105334982
v -0.463824481 -0.0329885259 -0.0512480214
v -0.454407811 -8.76970319e-09 -5.67618279e-11
v -0.505764008 -0.19974044 -0.252888113
v -0.521525621 -0.169453904 -0.185836911
v -0.518462062 -0.134839177 -0.120922655
v -0.501603782 -0.0985325873 -0.0608964302
v -0.482595354 -0.0630071536 -0.00682811299
v -0.453732431 -0.0265028775 0.0428824238
v -0.519854605 -0.284084797 -0.27115646
v -0.539915204 -0.2508789 -0.19998543
v -0.555678964 -0.218034118 -0.134752363
v -0.53865242 -0.175018832 -0.0691078678
v -0.500328958 -0.129539683 -0.0106833167
v -0.468623608 -0.089637585 0.0391415395
v -0.446116865 -0.0527625829 0.0853714198
v -0.535482645 -0.385753989 -0.29229477
v -0.554064512 -0.345007628 -0.213226244
v -0.577728271 -0.311498672 -0.144410759
v -0.555808425 -0.257941663 -0.0729383826
v -0.525111914 -0.206709564 -0.0116210813
v -0.480154991 -0.156011924 0.0394503176
v -0.450403422 -0.114951342 0.0837198049
v -0.428966016 -0.0777101815 0.125737369
v -0.516867816 -0.48017934 -0.296766937
v -0.520404816 -0.421701014 -0.208271444
v -0.523394644 -0.372101247 -0.13373144
v -0.531131446 -0.331398726 -0.0688247234
v -0.535335541 -0.291659921 -0.00839434285
v -0.514640093 -0.24200435 0.0467921756
v -0.46249181 -0.183917359 0.0896956846
v -0.426037312 -0.138428092 0.126487389
v -0.402201533 -0.100122035 0.162000448
v -0.456464827 -0.545201242 -0.279553473
v -0.466153502 -0.487911999 -0.1953464
v -0.45558989 -0.421293795 -0.118188724
v -0.468205661 -0.383885384 -0.0572222173
v -0.493029892 -0.358207345 -4.08675183e-09
v -0.505451143 -0.323891044 0.0567338765
v -0.489180297 -0.273887306 0.106715113
v -0.432181805 -0.208199412 0.138492852
v -0.399207592 -0.161401629 0.16839163
v -0.384116083 -0.124807082 0.201941594
v -0.347885847 -0.555597544 -0.257542282
v -0.236212268 -0.50938338 -0.236125439
v -0.295395315 -0.54859364 -0.180269569
v -0.150185212 -0.469088972 -0.217956007
v -0.201758146 -0.525460124 -0.175024644
v -0.261112452 -0.566126287 -0.118747525
v -0.0797839239 -0.424527436 -0.197433516
v -0.121240079 -0.490084976 -0.16486086
v -0.158873051 -0.507185638 -0.110733226
v -0.211363658 -0.540785015 -0.0548626781
v -0.0240644477 -0.388341367 -0.180612251
v -0.052473601 -0.432826936 -0.146319598
v -0.0865680054 -0.475637287 -0.106376491
v -0.126171321 -0.508124948 -0.0576393418
v -0.166795224 -0.513342977 -7.0539925e-09
v 0.0229411814 -0.370296091 -0.172164679
v 0 -0.394290507 -0.133461073
v -0.0255327374 -0.427646935 -0.0966809988
v -0.0566211566 -0.469105154 -0.0563099384
v -0.0924709812 -0.49578023 -0.00705282809
v -0.12791805 -0.489166409 0.047737468
v 0.0667691901 -0.355558097 -0.165185153
v 0.0453374907 -0.374287307 -0.126459926
v 0.0233677514 -0.391646445 -0.0885329992
v 8.41182679e-11 -0.429225862 -0.0524249934
v -0.0280786082 -0.461638927 -0.00961075537
v -0.0601728447 -0.47818318 0.0395454317
v -0.0963976532 -0.484626323 0.0939722806
v 0.113325909 -0.354377359 -0.164455056
v 0.0904698521 -0.366305292 -0.123134822
v 0.0692481697 -0.381095052 -0.0852335542
v 0.0497171879 -0.412375659 -0.0495335646
v 0.0272061061 -0.447438121 -0.00932989083
v 0 -0.476366669 0.0371872559
v -0.0316920802 -0.4920035 0.088842161
v -0.0626431927 -0.461810052 0.134506866
v 0.16428487 -0.354774952 -0.164320037
v 0.140711486 -0.367191136 -0.122293025
v 0.117779717 -0.376813948 -0.082334049
v 0.101004452 -0.407554775 -0.0463243686
v 0.0838860422 -0.45018959 -0.00646180194
v 0.0610120706 -0.484775752 0.0401006155
v 0.0319095068 -0.495335877 0.08944913
v 5.15931915e-11 -0.476740837 0.134663537
v -0.0308753997 -0.440558434 0.172766641
v 0.212872475 -0.341030657 -0.157061607
v 0.195800424 -0.364215136 -0.119198263
v 0.176540658 -0.383095741 -0.0801202059
v 0.15997602 -0.409427881 -0.0414638184
v 0.148420125 -0.456790268 3.54447427e-09
v 0.123780906 -0.473322511 0.0461819433
v 0.0993434936 -0.499503821 0.0968778431
v 0.0664735138 -0.490426987 0.14292106
v 0.0330355577 -0.472907126 0.185616836
v 0 -0.435692817 0.21784614
v 0.268386543 -0.319625884 -0.163144737
v 0.301115274 -0.279346079 -0.172645196
v 0.313795745 -0.32805261 -0.130988717
v 0.335584164 -0.241511896 -0.182837278
v 0.359727591 -0.291157752 -0.143917203
v 0.36946556 -0.341541916 -0.0957013294
v 0.378999799 -0.2070131 -0.197383657
v 0.405872881 -0.252550513 -0.156084642
v 0.429826438 -0.305372149 -0.109855086
v 0.428050846 -0.350942045 -0.0522883758
v 0.431664556 -0.170459434 -0.215661749
v 0.457389772 -0.212484047 -0.169333681
v 0.465658396 -0.250949979 -0.116390392
v 0.482984066 -0.301255226 -0.0626249015
v 0.497026473 -0.361110955 -3.17496962e-08
v 0.431176364 -0.111124843 -0.206860989
v 0.474233031 -0.154087618 -0.168932959
v 0.484177053 -0.189953119 -0.117397375
v 0.511500537 -0.2373382 -0.0671443418
v 0.521628618 -0.284166723 -0.00819533132
v 0.505643725 -0.324014366 0.0567555949
v 0.425245911 -0.0549017042 -0.19597052
v 0.454506457 -0.0890494063 -0.155463174
v 0.48897925 -0.12718226 -0.114040881
v 0.516312003 -0.167759985 -0.0662504658
v 0.533651114 -0.210075974 -0.0118022682
v 0.517414987 -0.243313372 0.0470484905
v 0.508454382 -0.284659266 0.110945195
v 0.418416053 -0.00188021932 -0.185042232
v 0.437676221 -0.0314849317 -0.143252566
v 0.469089001 -0.0633086115 -0.104152739
v 0.504219949 -0.0990440249 -0.0612125136
v 0.544288814 -0.140895531 -0.011579562
v 0.568861127 -0.184834331 0.0468570329
v 0.535038054 -0.21283555 0.103890538
v 0.522271276 -0.251408756 0.167611286
v 0.384881496 0.0462110825 -0.162921697
v 0.40992558 0.0212869383 -0.12765497
v 0.428990453 -0.0047283629 -0.0894444138
v 0.462256789 -0.0328802541 -0.0510765091
v 0.508425057 -0.0663324222 -0.00715988781
v 0.549759209 -0.105034888 0.046040535
v 0.558694661 -0.142487928 0.104029
v 0.537503421 -0.174645633 0.159785181
v 0.526997328 -0.212566659 0.222950965
v 0.356567591 0.0885921195 -0.14334473
v 0.367312849 0.0664209723 -0.107471079
v 0.383528888 0.0452994891 -0.0732958764
v 0.410927057 0.0239854865 -0.0388091765
v 0.456567705 5.40727879e-11 2.7036394e-11
v 0.501878023 -0.0293343402 0.0474638343
v 0.555561066 -0.065812923 0.106487259
v 0.548798501 -0.0996525288 0.161240757
v 0.53467989 -0.133594096 0.216159239
v 0.506911933 -0.164705932 0.266499132
v 0.33979255 0.137612775 -0.143024594
v 0.3305628 0.184412509 -0.159080148
v 0.348123968 0.167883068 -0.111323938
v 0.326528013 0.239506662 -0.179060563
v 0.343364447 0.223219424 -0.127364531
v 0.357416451 0.200246751 -0.0777969286
v 0.316823602 0.299143314 -0.199167594
v 0.327088118 0.275595188 -0.139623463
v 0.345443219 0.256839782 -0.0897447392
v 0.360177338 0.230861962 -0.0403469391
v 0.274356037 0.332259327 -0.200144768
v 0.286236465 0.307907581 -0.14106831
v 0.311487377 0.297590226 -0.0947935209
v 0.337127477 0.2836335 -0.0485822409
v 0.35717842 0.259505451 -1.36567087e-08
v 0.222269073 0.349523753 -0.192350984
v 0.2512393 0.345801443 -0.144727856
v 0.27373299 0.333047152 -0.0972897932
v 0.297859043 0.320783257 -0.05218786
v 0.328867882 0.31149599 -0.00639854698
v 0.357869387 0.293364733 0.0436651446
v 0.175771445 0.370867819 -0.187533349
v 0.212565094 0.382102072 -0.146741167
v 0.244018719 0.38182801 -0.102268837
v 0.268248737 0.369212866 -0.0557270907
v 0.295396447 0.358589232 -0.00965219736
v 0.331923962 0.353800386 0.0398104824
v 0.343684793 0.317668676 0.0889698714
v 0.123046756 0.372885704 -0.17360498
v 0.161609083 0.397671759 -0.140127748
v 0.205446854 0.427151263 -0.104295336
v 0.229351655 0.411762416 -0.0561698601
v 0.26212281 0.411172837 -0.010106748
v 0.300312191 0.413344353 0.0399312936
v 0.33193633 0.399989456 0.0937058181
v 0.33967483 0.355205894 0.141920343
v 0.0758734643 0.384869695 -0.164871976
v 0.106762826 0.39769429 -0.128058329
v 0.14519085 0.430819541 -0.0947651863
v 0.177474976 0.437805802 -0.0520572029
v 0.20785439 0.436972648 -0.00679241074
v 0.254867464 0.46320942 0.0434502885
v 0.291852772 0.461490571 0.0984770954
v 0.3092134 0.42559582 0.148676857
v 0.324536622 0.38697058 0.19789812
v 0.0286934264 0.407882988 -0.159786656
v 0.0574110076 0.422719508 -0.123013131
v 0.0869679153 0.437002838 -0.0846714526
v 0.122279249 0.467571676 -0.045617342
v 0.156205907 0.480752438 3.09109849e-09
v 0.186891854 0.478230178 0.0484818779
v 0.219651043 0.476395369 0.0998104438
v 0.237921759 0.442193717 0.145026952
v 0.259664446 0.41539371 0.191885456
v 0.293033361 0.403325826 0.24926886
v 0 0.441909075 -0.124767661
v -0.0299407933 0.465162486 -0.0839532092
v 0.0294082984 0.457001239 -0.0824666768
v -0.06115086 0.48586604 -0.0401924327
v 0 0.469358116 -0.0366306938
v 0.0590351298 0.469245762 -0.0387927815
v -0.08872471 0.47588554 0.00679491973
v -0.0277414415 0.456151187 0.00950221345
v 0.0277973078 0.457060516 0.0095202066
v 0.090427801 0.48492986 0.00691216625
v -0.111267842 0.448568702 0.0509387925
v -0.0524713472 0.435006112 0.0522368141
v 9.25622246e-09 0.434278339 0.0530395731
v 0.0539043806 0.446781516 0.0536433868
v 0.11948774 0.481416434 0.0546344183
v -0.13199693 0.421919227 0.0921594501
v -0.075280942 0.414025605 0.0925979763
v -0.0245424453 0.411179483 0.0929539204
v 0.0247942582 0.415367186 0.0939017087
v 0.0795291811 0.43721509 0.0977839679
v 0.144464418 0.461473197 0.100775585
v -0.155331865 0.405095786 0.134922042
v -0.098718904 0.399488837 0.134320945
v -0.047953248 0.395745069 0.133739501
v -1.9907842e-09 0.393869042 0.133317843
v 0.0474757813 0.391828358 0.13241075
v 0.101382114 0.410202146 0.13793242
v 0.163484231 0.426231533 0.141963959
v -0.179712668 0.387937129 0.179721683
v -0.124802493 0.390094161 0.181113198
v -0.0731301084 0.38926661 0.18094641
v -0.0235061571 0.379372746 0.17641373
v 0.0232290309 0.374920726 0.174329609
v 0.0731608868 0.389429837 0.181022733
v 0.126943856 0.396758407 0.184221372
v 0.188209742 0.406201601 0.188204318
v -0.208302006 0.373743713 0.230986059
v -0.153129905 0.377885282 0.233545691
v -0.0987953022 0.37362048 0.230909929
v -0.0478869826 0.366771549 0.22667709
v -1.87920235e-10 0.361126393 0.223188162
v 0.0486430191 0.372520745 0.230230242
v 0.0993790179 0.375809669 0.232262909
v 0.15602304 0.384951323 0.237912759
v 0.221830428 0.397689253 0.245785221
v -0.50858438 0.165249258 -0.151146322
v -0.500306249 0.127640769 -0.0930787027
v -0.547110736 0.21764791 -0.106252745
v -0.486173749 0.0929681212 -0.0406338349
v -0.539105654 0.17516619 -0.0443725213
v -0.57118088 0.268676341 -0.0520146973
v -0.46631524 0.0609112717 0.00661899801
v -0.51528281 0.133402616 0.010988188
v -0.53302753 0.20983021 0.01178905
v -0.555446506 0.302653968 0.0086863786
v -0.461686373 0.0328408629 0.0510141104
v -0.481134206 0.0945309922 0.0584233142
v -0.509590805 0.165576145 0.0653908029
v -0.513609409 0.238318786 0.0674200952
v -0.514969766 0.32128039 0.0667436123
v -0.442025453 0.00484328019 0.0921526402
v -0.470891625 0.0635497347 0.104552828
v -0.484635055 0.126054019 0.113026857
v -0.485889912 0.190625817 0.117813118
v -0.477462649 0.257327527 0.119341753
v -0.449689358 0.31953758 0.114923626
v -0.421066344 -0.0218887981 0.131123185
v -0.436723471 0.0314176567 0.142940104
v -0.448700219 0.0879155472 0.153470933
v -0.451160163 0.146590769 0.160685942
v -0.45840171 0.212954864 0.169709548
v -0.434397668 0.270347208 0.167083591
v -0.395435989 0.32016924 0.158219084
v -0.40309462 -0.0484309271 0.170647904
v -0.419494808 0.00188373635 0.1855212
v -0.430719525 0.0556042306 0.198506057
v -0.433687091 0.111771271 0.208072335
v -0.4321132 0.170636743 0.215887129
v -0.418081552 0.228397503 0.217852741
v -0.394462407 0.283997089 0.215076968
v -0.349915922 0.324772179 0.200720042
v -0.386131138 -0.0757813528 0.212489054
v -0.406609565 -0.0288549177 0.233488113
v -0.425729275 0.0236333776 0.254750729
v -0.415220618 0.077366963 0.258836091
v -0.419690609 0.136365622 0.272731245
v -0.402942061 0.191742316 0.273462683
v -0.37508142 0.241977215 0.266680598
v -0.342986465 0.288595468 0.256718963
v -0.302104741 0.325614035 0.239759237
v -0.389006615 -0.535421789 -0.187244728
v -0.3328529 -0.526429355 -0.112435937
v -0.399980128 -0.481852442 -0.113053881
v -0.298226118 -0.542257011 -0.0509820506
v -0.353569001 -0.486646116 -0.0471264347
v -0.413110107 -0.440089852 -0.0497080982
v -0.252360612 -0.530974269 0.00811741967
v -0.328126401 -0.51484108 0.0125327343
v -0.380270332 -0.461491525 0.0122852996
v -0.435898453 -0.412482798 0.0082732169
v -0.201280385 -0.496872574 0.0590077564
v -0.280626863 -0.504032671 0.068686597
v -0.346990049 -0.477590919 0.0720226616
v -0.400029987 -0.430583328 0.0699720904
v -0.446000606 -0.374829471 0.0640827268
v -0.164171994 -0.487531602 0.107189856
v -0.229386404 -0.477075219 0.116474606
v -0.30782178 -0.48175329 0.129053637
v -0.361425459 -0.439648509 0.128475145
v -0.393271446 -0.37552318 0.119643942
v -0.453352451 -0.336703211 0.117635623
v -0.119274274 -0.444690645 0.143176198
v -0.181638956 -0.447148293 0.157589704
v -0.248451963 -0.446711123 0.171629906
v -0.312572926 -0.430219918 0.180199474
v -0.348582983 -0.374882847 0.171882719
v -0.383425653 -0.322934896 0.163696766
v -0.429984868 -0.279273093 0.15943706
v -0.0816423818 -0.41440767 0.177545264
v -0.13291131 -0.402912498 0.187639013
v -0.191302195 -0.403702945 0.2042225
v -0.245965764 -0.386808932 0.212992236
v -0.292340279 -0.354028016 0.213337719
v -0.328586489 -0.310233444 0.20659557
v -0.361688763 -0.265227914 0.198404744
v -0.383654803 -0.21390377 0.184654489
v -0.0487127416 -0.403428674 0.219409987
v -0.0922183841 -0.371122718 0.219061345
v -0.136164978 -0.351208568 0.225068778
v -0.185034081 -0.339955419 0.23719497
v -0.233882159 -0.321911365 0.24591805
v -0.276548207 -0.292003334 0.246463344
v -0.317297876 -0.258614838 0.244572267
v -0.342340857 -0.213445351 0.231084943
v -0.370133549 -0.171681225 0.220299184
v 0.255825371 -0.352113396 -0.122871868
v 0.309640646 -0.373165667 -0.0873660743
v 0.241540566 -0.381802708 -0.0813478678
v 0.375074565 -0.399663419 -0.0450710878
v 0.306686461 -0.42211777 -0.0407924689
v 0.225222185 -0.40916273 -0.0383006483
v 0.432473749 -0.409251392 0.00821321178
v 0.372191161 -0.451696217 0.0120346388
v 0.295825273 -0.464107454 0.0113454852
v 0.215586215 -0.453303009 0.00702259596
v 0.488108277 -0.410100222 0.070077695
v 0.417533517 -0.449393839 0.0730188191
v 0.341219902 -0.469649106 0.0708285421
v 0.272659779 -0.489695847 0.0667417794
v 0.194462582 -0.479956001 0.0570171364
v 0.508348882 -0.377405941 0.131850347
v 0.464089096 -0.443006098 0.141162157
v 0.398507267 -0.484726131 0.14166227
v 0.334683865 -0.523823321 0.140330493
v 0.249695376 -0.519427776 0.12680681
v 0.167801723 -0.498376518 0.109565802
v 0.520288765 -0.337710381 0.192873418
v 0.493553162 -0.41547364 0.210754722
v 0.437253833 -0.470136762 0.215707839
v 0.37940371 -0.522204578 0.218850255
v 0.303538382 -0.54588604 0.209834129
v 0.218525037 -0.53826201 0.189746872
v 0.135276794 -0.504800439 0.162512422
v 0.512472987 -0.285459042 0.246706083
v 0.487574339 -0.35731712 0.267662346
v 0.4307037 -0.406510383 0.271080136
v 0.380325109 -0.460527599 0.277881861
v 0.335944891 -0.528385162 0.291369647
v 0.262854397 -0.554978728 0.281111568
v 0.176508904 -0.535619497 0.249664217
v 0.100820825 -0.512605011 0.219676912
v 0.488805026 -0.225850731 0.290493757
v 0.464035571 -0.288704634 0.312922657
v 0.423630297 -0.344937712 0.326361209
v 0.379413635 -0.400432587 0.338045955
v 0.328078628 -0.451561749 0.344961941
v 0.264740556 -0.486705601 0.339524984
v 0.194651231 -0.503012598 0.322217077
v 0.120545253 -0.487027645 0.287304103
v 0.0559702218 -0.466782391 0.253723234
v 0.347857028 0.113025799 -0.103132933
v 0.352834463 0.140206099 -0.0682394207
v 0.357767999 0.0913957581 -0.0663467273
v 0.369245827 0.173417568 -0.0333624557
v 0.367047548 0.119261049 -0.0300061963
v 0.378883034 0.0726072863 -0.0315108746
v 0.381748319 0.207697988 0.00616437243
v 0.383285999 0.15079762 0.00861175824
v 0.393186897 0.101862431 0.00849891827
v 0.415679723 0.0543925427 0.00596860284
v 0.381480008 0.2377069 0.0495544896
v 0.399650335 0.185327053 0.0525179282
v 0.418587893 0.136007488 0.0537513308
v 0.437143534 0.085931249 0.0531083792
v 0.462318718 0.032884527 0.0510832854
v 0.370432854 0.263015032 0.0946992859
v 0.405876219 0.218651071 0.101443321
v 0.452444613 0.177490816 0.109695256
v 0.480156213 0.124890842 0.111981429
v 0.507637143 0.0684648305 0.112707861
v 0.533394516 0.0056486968 0.111135848
v 0.365024418 0.295461208 0.146038681
v 0.401208341 0.249640301 0.154286027
v 0.461202145 0.214257777 0.170749694
v 0.500634432 0.162665963 0.178369701
v 0.550096869 0.10771662 0.188262165
v 0.548762083 0.0393304527 0.179684013
v 0.559707224 -0.0293788016 0.174283206
v 0.354941636 0.329450369 0.203611329
v 0.39156726 0.281908005 0.213491678
v 0.439263165 0.239987493 0.228946641
v 0.482689798 0.190622509 0.241295993
v 0.51200211 0.131934643 0.245856598
v 0.53062439 0.0684266686 0.244785532
v 0.560539782 0.00234314124 0.248150602
v 0.550523043 -0.0663995594 0.233188659
v 0.340766728 0.367754459 0.27053228
v 0.371025234 0.312345743 0.277735621
v 0.423466206 0.273314208 0.301105261
v 0.467408985 0.222479865 0.317225695
v 0.482033283 0.156621963 0.313243955
v 0.499311268 0.0929648876 0.311242282
v 0.515410542 0.0284438264 0.30838272
v 0.526563585 -0.0378033482 0.302286267
v 0.524831772 -0.103912055 0.288642704
v -6.35660413e-08 8.3153251e-10 0.747434497
v 0.0447671711 0.0616168268 0.69433856
v -0.0460906662 0.063438341 0.715585351
v 0.0857667178 0.118047759 0.650446117
v -1.16469195e-07 0.129896134 0.683087707
v -0.0914803818 0.125911981 0.694240212
v 0.124958202 0.171990216 0.617099524
v 0.0424859039 0.187599778 0.641235471
v -0.0446136333 0.196870625 0.67305851
v -0.136805624 0.188296884 0.675842464
v 0.167191818 0.23011981 0.600003004
v 0.0807217732 0.23851116 0.595846057
v -3.55797773e-08 0.250415891 0.617328644
v -0.0832038671 0.245762408 0.614020288
v -0.1662772 0.228860959 0.596716344
v 0.192681685 0.265203625 0.53040725
v 0.110848755 0.27280575 0.527011931
v 0.0368537419 0.281446904 0.535087347
v -0.0376794599 0.287694752 0.546988785
v -0.113434203 0.279105246 0.539212942
v -0.192677289 0.265197575 0.53039515
v 0.209335878 0.288126111 0.45475769
v 0.131815314 0.291150779 0.447741807
v 0.0657580495 0.301752269 0.457538456
v 7.78852705e-10 0.312505633 0.471751153
v -0.0700129569 0.321123362 0.486942232
v -0.144665584 0.319283336 0.491088152
v -0.209021106 0.287692875 0.45407474
v 0.23592931 0.324728787 0.409649402
v 0.154334739 0.31661886 0.392643631
v 0.090916954 0.323222518 0.396708488
v 0.0304648727 0.331004292 0.404316306
v -0.0311798658 0.338728249 0.413747102
v -0.0979833752 0.3481884 0.427351415
v -0.167756483 0.343958259 0.426581442
v -0.229816586 0.316315383 0.399065465
v 0.256046981 0.352418423 0.355693758
v 0.186476424 0.362014949 0.362178922
v 0.116131157 0.351241261 0.349333316
v 0.0561226234 0.346908361 0.343928069
v 4.33454453e-11 0.349758655 0.34639582
v -0.0576828383 0.356515914 0.353433967
v -0.120656975 0.364872515 0.362872571
v -0.182307497 0.353960395 0.354122072
v -0.241697013 0.33266741 0.335867733
v 0.27163291 0.373870641 0.298754424
v 0.201392069 0.374436796 0.298608661
v 0.139389291 0.375687391 0.299049258
v 0.0801012516 0.367899776 0.292566121
v 0.0256124083 0.356750041 0.283606946
v -0.0255143791 0.355386049 0.282527864
v -0.0802412853 0.368542045 0.293074697
v -0.134395421 0.362253606 0.28839004
v -0.190428168 0.354107529 0.282424599
v -0.248246551 0.341682076 0.273295641
v 0.0739483163 -0.0240273103 0.709355474
v 0.144940779 -0.0470941886 0.679661155
v 0.122272402 0.0397286862 0.67604512
v 0.213845104 -0.0694825947 0.652825534
v 0.203287482 0.0186074842 0.680669427
v 0.169884637 0.101131134 0.659158111
v 0.275465846 -0.0895044133 0.610982597
v 0.28252539 -0.00354787894 0.668756247
v 0.25605008 0.0831956714 0.663830221
v 0.217287093 0.162031263 0.641490877
v 0.345962793 -0.112410367 0.588587165
v 0.356041461 -0.025824517 0.639017522
v 0.349452257 0.0649320483 0.670271039
v 0.31051755 0.147923142 0.648586869
v 0.263468802 0.222196072 0.616939008
v 0.400390208 -0.130094856 0.537465096
v 0.404528916 -0.0453704484 0.570325315
v 0.422451913 0.0420205668 0.629076242
v 0.39195773 0.127354756 0.622261941
v 0.361533225 0.211420357 0.6205917
v 0.296133608 0.270379037 0.56182313
v 0.429890722 -0.139680162 0.461173773
v 0.436848462 -0.0615447983 0.49174124
v 0.443289489 0.0175475683 0.524103582
v 0.471120954 0.106448472 0.587405443
v 0.441212952 0.189722583 0.58409524
v 0.397243857 0.265310854 0.564326346
v 0.318425477 0.307711691 0.493577898
v 0.448807091 -0.145826519 0.385165036
v 0.465067595 -0.0758959278 0.419032454
v 0.471136749 -0.00255628955 0.444731653
v 0.46903944 0.0726229846 0.464257836
v 0.471497416 0.153198645 0.490676403
v 0.437452763 0.224814832 0.481067181
v 0.407454491 0.299465775 0.477274895
v 0.329357564 0.332451791 0.416150033
v 0.480176479 -0.156019032 0.326114148
v 0.496436596 -0.0900744945 0.354230374
v 0.507986188 -0.0209691171 0.379154682
v 0.483119607 0.0483321622 0.376909912
v 0.470836371 0.116452031 0.384104371
v 0.461518794 0.187477291 0.394457638
v 0.444177091 0.259428829 0.399237901
v 0.408062726 0.323013723 0.388092011
v 0.335056484 0.350392729 0.340402246
v 2.56535149e-08 -0.0849949867 0.777685642
v -8.00876947e-08 -0.17122525 0.764474809
v 0.0807047337 -0.111080557 0.722269058
v -1.19928933e-09 -0.241198793 0.700472176
v 0.0820873156 -0.191276386 0.694082975
v 0.148769706 -0.130398005 0.659562111
v -1.18851817e-08 -0.268729091 0.56681031
v 0.080484353 -0.258593172 0.640966594
v 0.147221059 -0.202632636 0.617456317
v 0.211896002 -0.150009483 0.614388883
v -1.29546929e-10 -0.317570329 0.513839483
v 0.0743971616 -0.301154912 0.555218041
v 0.141667724 -0.260518551 0.559064209
v 0.209076688 -0.220593721 0.573011875
v 0.280375242 -0.174280718 0.590908587
v -1.65801293e-08 -0.364151597 0.464970589
v 0.0731924772 -0.355974048 0.509157181
v 0.146778002 -0.334502548 0.541236341
v 0.212049097 -0.291860729 0.544653177
v 0.281061172 -0.250322074 0.55766958
v 0.356865019 -0.202723399 0.575035214
v -2.57763277e-09 -0.367343664 0.375002533
v 0.0675380006 -0.38310492 0.433629692
v 0.137601137 -0.372479975 0.469124466
v 0.216373235 -0.36390838 0.514918387
v 0.281522572 -0.320842981 0.519134581
v 0.341594398 -0.269468248 0.514005244
v 0.401029617 -0.213025957 0.506155133
v -1.47192969e-09 -0.375991732 0.307275832
v 0.0616558157 -0.400715709 0.360589653
v 0.131460801 -0.412065983 0.408330142
v 0.204327792 -0.40445438 0.443268746
v 0.280629873 -0.386254132 0.472566903
v 0.347396314 -0.344987392 0.478871733
v 0.38871491 -0.279199719 0.451754212
v 0.419056654 -0.211055771 0.417242289
v -5.28027205e-11 -0.401904017 0.260217667
v 0.0573210269 -0.422507077 0.299461275
v 0.125369906 -0.447850198 0.346912235
v 0.200538993 -0.456567258 0.387073576
v 0.268273532 -0.431133449 0.402066082
v 0.335807502 -0.398670495 0.412693024
v 0.389307201 -0.347007334 0.404747903
v 0.417547941 -0.27780363 0.374022782
v 0.446641028 -0.215117455 0.348066717
v -0.0792878121 -0.0257622097 0.762335062
v -0.145444766 -0.047257863 0.682048142
v -0.0841439366 -0.115814358 0.753221273
v -0.206220955 -0.0670053139 0.629462242
v -0.15094623 -0.132295012 0.66922164
v -0.0820357502 -0.191155314 0.693642616
v -0.243208975 -0.0790235177 0.539343119
v -0.202155441 -0.143162698 0.586155832
v -0.147184968 -0.202582866 0.617304206
v -0.0755806938 -0.242657468 0.601430118
v -0.287363738 -0.0933703035 0.488892406
v -0.243556201 -0.151553467 0.513380766
v -0.192018375 -0.202635825 0.526237905
v -0.130397141 -0.239736065 0.514417589
v -0.0697852001 -0.282215357 0.520290852
v -0.305656195 -0.0993138775 0.410430163
v -0.274906754 -0.156447515 0.443125546
v -0.223080754 -0.198823795 0.442697793
v -0.167038158 -0.229908437 0.428960174
v -0.119064823 -0.271104366 0.438655853
v -0.0657460541 -0.319210202 0.456586242
v -0.325769365 -0.105849057 0.34975335
v -0.290867984 -0.154816076 0.36731717
v -0.243000358 -0.191893101 0.365844697
v -0.196236312 -0.22372514 0.361994535
v -0.152148634 -0.255790085 0.362027496
v -0.108182311 -0.292505443 0.368487448
v -0.057996884 -0.32816577 0.371493936
v -0.354778379 -0.115274668 0.304875612
v -0.319013506 -0.160882607 0.317819625
v -0.276375175 -0.19867447 0.321461618
v -0.228708446 -0.227224037 0.315582246
v -0.184815809 -0.254377276 0.311481446
v -0.141520783 -0.279987842 0.307112008
v -0.0995865464 -0.311785817 0.309140623
v -0.0532168336 -0.345141619 0.310654998
v -0.368596762 -0.119764552 0.251042962
v -0.345663816 -0.166604295 0.269570947
v -0.310939282 -0.206951916 0.278820395
v -0.270000786 -0.240711331 0.281117111
v -0.226175696 -0.268532187 0.278416812
v -0.180905983 -0.290707886 0.271558911
v -0.136093646 -0.309752315 0.26301986
v -0.0940627456 -0.335779786 0.260370016
v -0.0501974449 -0.369550467 0.262020916
v -0.131699696 0.0427917615 0.72848022
v -0.174437419 0.103858642 0.676914394
v -0.196819305 0.018033091 0.658944249
v -0.202485755 0.150919735 0.597603202
v -0.226591781 0.0736240447 0.587260962
v -0.237157315 -0.00283826771 0.56116277
v -0.22759147 0.191754565 0.532632589
v -0.250276029 0.119152777 0.522515178
v -0.263318151 0.0490121916 0.504855394
v -0.272710681 -0.0195379052 0.489282608
v -0.251318604 0.229241878 0.47656554
v -0.286600202 0.167477772 0.491804361
v -0.304084033 0.0988028347 0.482670069
v -0.310677618 0.0310383122 0.462564409
v -0.313550621 -0.034924604 0.441981375
v -0.267894506 0.258661836 0.4151057
v -0.307962656 0.205533743 0.437434286
v -0.343192309 0.147531226 0.454352856
v -0.361297131 0.0816758499 0.450529128
v -0.354716122 0.0141509529 0.41942203
v -0.339115381 -0.0475519672 0.38172552
v -0.294199795 0.296842545 0.371696681
v -0.329409301 0.241995201 0.385910988
v -0.368029654 0.189099461 0.404820561
v -0.385723591 0.125329092 0.401552469
v -0.399471164 0.0618830882 0.395510793
v -0.397127658 -0.00208211388 0.37496534
v -0.363340795 -0.059117984 0.32744348
v -0.296324223 0.309806913 0.301092386
v -0.337482035 0.267087907 0.321116984
v -0.379601419 0.221692964 0.341369808
v -0.421011418 0.17101942 0.359955281
v -0.411760956 0.101845123 0.336083561
v -0.40537414 0.0405730456 0.316458732
v -0.390923351 -0.0160787012 0.292014629
v -0.369974405 -0.0670040622 0.264157146
g 
f 3 1 2
f 5 2 4
f 6 3 5
f 8 4 7
f 9 5 8
f 10 6 9
f 12 7 11
f 13 8 12
f 14 9 13
f 15 10 14
f 17 11 16
f 18 12 17
f 19 13 18
f 20 14 19
f 21 15 20
f 23 16 22
f 24 17 23
f 25 18 24
f 26 19 25
f 27 20 26
f 28 21 27
f 30 22 29
f 31 23 30
f 32 24 31
f 33 25 32
f 34 26 33
f 35 27 34
f 36 28 35
f 38 29 37
f 39 30 38
f 40 31 39
f 41 32 40
f 42 33 41
f 43 34 42
f 44 35 43
f 45 36 44
f 47 37 46
f 48 38 47
f 49 39 48
f 50 40 49
f 51 41 50
f 52 42 51
f 53 43 52
f 54 44 53
f 55 45 54
f 57 46 56
f 58 47 57
f 59 48 58
f 60 49 59
f 61 50 60
f 62 51 61
f 63 52 62
f 64 53 63
f 65 54 64
f 66 55 65
f 3 2 5
f 5 4 8
f 6 5 9
f 8 7 12
f 9 8 13
f 10 9 14
f 12 11 17
f 13 12 18
f 14 13 19
f 15 14 20
f 17 16 23
f 18 17 24
f 19 18 25
f 20 19 26
f 21 20 27
f 23 22 30
f 24 23 31
f 25 24 32
f 26 25 33
f 27 26 34
f 28 27 35
f 30 29 38
f 31 30 39
f 32 31 40
f 33 32 41
f 34 33 42
f 35 34 43
f 36 35 44
f 38 37 47
f 39 38 48
f 40 39 49
f 41 40 50
f 42 41 51
f 43 42 52
f 44 43 53
f 45 44 54
f 47 46 57
f 48 47 58
f 49 48 59
f 50 49 60
f 51 50 61
f 52 51 62
f 53 52 63
f 54 53 64
f 55 54 65
f 67 1 3
f 68 3 6
f 69 67 68
f 70 6 10
f 71 68 70
f 72 69 71
f 73 10 15
f 74 70 73
f 75 71 74
f 76 72 75
f 77 15 21
f 78 73 77
f 79 74 78
f 80 75 79
f 81 76 80
f 82 21 28
f 83 77 82
f 84 78 83
f 85 79 84
f 86 80 85
f 87 81 86
f 88 28 36
f 89 82 88
f 90 83 89
f 91 84 90
f 92 85 91
f 93 86 92
f 94 87 93
f 95 36 45
f 96 88 95
f 97 89 96
f 98 90 97
f 99 91 98
f 100 92 99
f 101 93 100
f 102 94 101
f 103 45 55
f 104 95 103
f 105 96 104
f 106 97 105
f 107 98 106
f 108 99 107
f 109 100 108
f 110 101 109
f 111 102 110
f 112 55 66
f 113 103 112
f 114 104 113
f 115 105 114
f 116 106 115
f 117 107 116
f 118 108 117
f 119 109 118
f 120 110 119
f 121 111 120
f 67 3 68
f 68 6 70
f 69 68 71
f 70 10 73
f 71 70 74
f 72 71 75
f 73 15 77
f 74 73 78
f 75 74 79
f 76 75 80
f 77 21 82
f 78 77 83
f 79 78 84
f 80 79 85
f 81 80 86
f 82 28 88
f 83 82 89
f 84 83 90
f 85 84 91
f 86 85 92
f 87 86 93
f 88 36 95
f 89 88 96
f 90 89 97
f 91 90 98
f 92 91 99
f 93 92 100
f 94 93 101
f 95 45 103
f 96 95 104
f 97 96 105
f 98 97 106
f 99 98 107
f 100 99 108
f 101 100 109
f 102 101 110
f 103 55 112
f 104 103 113
f 105 104 114
f 106 105 115
f 107 106 116
f 108 107 117
f 109 108 118
f 110 109 119
f 111 110 120
f 122 1 67
f 123 67 69
f 124 122 123
f 125 69 72
f 126 123 125
f 127 124 126
f 128 72 76
f 129 125 128
f 130 126 129
f 131 127 130
f 132 76 81
f 133 128 132
f 134 129 133
f 135 130 134
f 136 131 135
f 137 81 87
f 138 132 137
f 139 133 138
f 140 134 139
f 141 135 140
f 142 136 141
f 143 87 94
f 144 137 143
f 145 138 144
f 146 139 145
f 147 140 146
f 148 141 147
f 149 142 148
f 150 94 102
f 151 143 150
f 152 144 151
f 153 145 152
f 154 146 153
f 155 147 154
f 156 148 155
f 157 149 156
f 158 102 111
f 159 150 158
f 160 151 159
f 161 152 160
f 162 153 161
f 163 154 162
f 164 155 163
f 165 156 164
f 166 157 165
f 167 111 121
f 168 158 167
f 169 159 168
f 170 160 169
f 171 161 170
f 172 162 171
f 173 163 172
f 174 164 173
f 175 165 174
f 176 166 175
f 122 67 123
f 123 69 125
f 124 123 126
f 125 72 128
f 126 125 129
f 127 126 130
f 128 76 132
f 129 128 133
f 130 129 134
f 131 130 135
f 132 81 137
f 133 132 138
f 134 133 139
f 135 134 140
f 136 135 141
f 137 87 143
f 138 137 144
f 139 138 145
f 140 139 146
f 141 140 147
f 142 141 148
f 143 94 150
f 144 143 151
f 145 144 152
f 146 145 153
f 147 146 154
f 148 147 155
f 149 148 156
f 150 102 158
f 151 150 159
f 152 151 160
f 153 152 161
f 154 153 162
f 155 154 163
f 156 155 164
f 157 156 165
f 158 111 167
f 159 158 168
f 160 159 169
f 161 160 170
f 162 161 171
f 163 162 172
f 164 163 173
f 165 164 174
f 166 165 175
f 177 1 122
f 178 122 124
f 179 177 178
f 180 124 127
f 181 178 180
f 182 179 181
f 183 127 131
f 184 180 183
f 185 181 184
f 186 182 185
f 187 131 136
f 188 183 187
f 189 184 188
f 190 185 189
f 191 186 190
f 192 136 142
f 193 187 192
f 194 188 193
f 195 189 194
f 196 190 195
f 197 191 196
f 198 142 149
f 199 192 198
f 200 193 199
f 201 194 200
f 202 195 201
f 203 196 202
f 204 197 203
f 205 149 157
f 206 198 205
f 207 199 206
f 208 200 207
f 209 201 208
f 210 202 209
f 211 203 210
f 212 204 211
f 213 157 166
f 214 205 213
f 215 206 214
f 216 207 215
f 217 208 216
f 218 209 217
f 219 210 218
f 220 211 219
f 221 212 220
f 222 166 176
f 223 213 222
f 224 214 223
f 225 215 224
f 226 216 225
f 227 217 226
f 228 218 227
f 229 219 228
f 230 220 229
f 231 221 230
f 177 122 178
f 178 124 180
f 179 178 181
f 180 127 183
f 181 180 184
f 182 181 185
f 183 131 187
f 184 183 188
f 185 184 189
f 186 185 190
f 187 136 192
f 188 187 193
f 189 188 194
f 190 189 195
f 191 190 196
f 192 142 198
f 193 192 199
f 194 193 200
f 195 194 201
f 196 195 202
f 197 196 203
f 198 149 205
f 199 198 206
f 200 199 207
f 201 200 208
f 202 201 209
f 203 202 210
f 204 203 211
f 205 157 213
f 206 205 214
f 207 206 215
f 208 207 216
f 209 208 217
f 210 209 218
f 211 210 219
f 212 211 220
f 213 166 222
f 214 213 223
f 215 214 224
f 216 215 225
f 217 216 226
f 218 217 227
f 219 218 228
f 220 219 229
f 221 220 230
f 2 1 177
f 232 177 179
f 4 2 232
f 233 179 182
f 234 232 233
f 7 4 234
f 235 182 186
f 236 233 235
f 237 234 236
f 11 7 237
f 238 186 191
f 239 235 238
f 240 236 239
f 241 237 240
f 16 11 241
f 242 191 197
f 243 238 242
f 244 239 243
f 245 240 244
f 246 241 245
f 22 16 246
f 247 197 204
f 248 242 247
f 249 243 248
f 250 244 249
f 251 245 250
f 252 246 251
f 29 22 252
f 253 204 212
f 254 247 253
f 255 248 254
f 256 249 255
f 257 250 256
f 258 251 257
f 259 252 258
f 37 29 259
f 260 212 221
f 261 253 260
f 262 254 261
f 263 255 262
f 264 256 263
f 265 257 264
f 266 258 265
f 267 259 266
f 46 37 267
f 268 221 231
f 269 260 268
f 270 261 269
f 271 262 270
f 272 263 271
f 273 264 272
f 274 265 273
f 275 266 274
f 276 267 275
f 56 46 276
f 2 177 232
f 232 179 233
f 4 232 234
f 233 182 235
f 234 233 236
f 7 234 237
f 235 186 238
f 236 235 239
f 237 236 240
f 11 237 241
f 238 191 242
f 239 238 243
f 240 239 244
f 241 240 245
f 16 241 246
f 242 197 247
f 243 242 248
f 244 243 249
f 245 244 250
f 246 245 251
f 22 246 252
f 247 204 253
f 248 247 254
f 249 248 255
f 250 249 256
f 251 250 257
f 252 251 258
f 29 252 259
f 253 212 260
f 254 253 261
f 255 254 262
f 256 255 263
f 257 256 264
f 258 257 265
f 259 258 266
f 37 259 267
f 260 221 268
f 261 260 269
f 262 261 270
f 263 262 271
f 264 263 272
f 265 264 273
f 266 265 274
f 267 266 275
f 46 267 276
f 277 56 276
f 278 276 275
f 279 277 278
f 280 275 274
f 281 278 280
f 282 279 281
f 283 274 273
f 284 280 283
f 285 281 284
f 286 282 285
f 287 273 272
f 288 283 287
f 289 284 288
f 290 285 289
f 291 286 290
f 292 272 271
f 293 287 292
f 294 288 293
f 295 289 294
f 296 290 295
f 297 291 296
f 298 271 270
f 299 292 298
f 300 293 299
f 301 294 300
f 302 295 301
f 303 296 302
f 304 297 303
f 305 270 269
f 306 298 305
f 307 299 306
f 308 300 307
f 309 301 308
f 310 302 309
f 311 303 310
f 312 304 311
f 313 269 268
f 314 305 313
f 315 306 314
f 316 307 315
f 317 308 316
f 318 309 317
f 319 310 318
f 320 311 319
f 321 312 320
f 322 268 231
f 323 313 322
f 324 314 323
f 325 315 324
f 326 316 325
f 327 317 326
f 328 318 327
f 329 319 328
f 330 320 329
f 331 321 330
f 277 276 278
f 278 275 280
f 279 278 281
f 280 274 283
f 281 280 284
f 282 281 285
f 283 273 287
f 284 283 288
f 285 284 289
f 286 285 290
f 287 272 292
f 288 287 293
f 289 288 294
f 290 289 295
f 291 290 296
f 292 271 298
f 293 292 299
f 294 293 300
f 295 294 301
f 296 295 302
f 297 296 303
f 298 270 305
f 299 298 306
f 300 299 307
f 301 300 308
f 302 301 309
f 303 302 310
f 304 303 311
f 305 269 313
f 306 305 314
f 307 306 315
f 308 307 316
f 309 308 317
f 310 309 318
f 311 310 319
f 312 311 320
f 313 268 322
f 314 313 323
f 315 314 324
f 316 315 325
f 317 316 326
f 318 317 327
f 319 318 328
f 320 319 329
f 321 320 330
f 332 231 230
f 333 230 229
f 334 332 333
f 335 229 228
f 336 333 335
f 337 334 336
f 338 228 227
f 339 335 338
f 340 336 339
f 341 337 340
f 342 227 226
f 343 338 342
f 344 339 343
f 345 340 344
f 346 341 345
f 347 226 225
f 348 342 347
f 349 343 348
f 350 344 349
f 351 345 350
f 352 346 351
f 353 225 224
f 354 347 353
f 355 348 354
f 356 349 355
f 357 350 356
f 358 351 357
f 359 352 358
f 360 224 223
f 361 353 360
f 362 354 361
f 363 355 362
f 364 356 363
f 365 357 364
f 366 358 365
f 367 359 366
f 368 223 222
f 369 360 368
f 370 361 369
f 371 362 370
f 372 363 371
f 373 364 372
f 374 365 373
f 375 366 374
f 376 367 375
f 377 222 176
f 378 368 377
f 379 369 378
f 380 370 379
f 381 371 380
f 382 372 381
f 383 373 382
f 384 374 383
f 385 375 384
f 386 376 385
f 332 230 333
f 333 229 335
f 334 333 336
f 335 228 338
f 336 335 339
f 337 336 340
f 338 227 342
f 339 338 343
f 340 339 344
f 341 340 345
f 342 226 347
f 343 342 348
f 344 343 349
f 345 344 350
f 346 345 351
f 347 225 353
f 348 347 354
f 349 348 355
f 350 349 356
f 351 350 357
f 352 351 358
f 353 224 360
f 354 353 361
f 355 354 362
f 356 355 363
f 357 356 364
f 358 357 365
f 359 358 366
f 360 223 368
f 361 360 369
f 362 361 370
f 363 362 371
f 364 363 372
f 365 364 373
f 366 365 374
f 367 366 375
f 368 222 377
f 369 368 378
f 370 369 379
f 371 370 380
f 372 371 381
f 373 372 382
f 374 373 383
f 375 374 384
f 376 375 385
f 387 176 175
f 388 175 174
f 389 387 388
f 390 174 173
f 391 388 390
f 392 389 391
f 393 173 172
f 394 390 393
f 395 391 394
f 396 392 395
f 397 172 171
f 398 393 397
f 399 394 398
f 400 395 399
f 401 396 400
f 402 171 170
f 403 397 402
f 404 398 403
f 405 399 404
f 406 400 405
f 407 401 406
f 408 170 169
f 409 402 408
f 410 403 409
f 411 404 410
f 412 405 411
f 413 406 412
f 414 407 413
f 415 169 168
f 416 408 415
f 417 409 416
f 418 410 417
f 419 411 418
f 420 412 419
f 421 413 420
f 422 414 421
f 423 168 167
f 424 415 423
f 425 416 424
f 426 417 425
f 427 418 426
f 428 419 427
f 429 420 428
f 430 421 429
f 431 422 430
f 432 167 121
f 433 423 432
f 434 424 433
f 435 425 434
f 436 426 435
f 437 427 436
f 438 428 437
f 439 429 438
f 440 430 439
f 441 431 440
f 387 175 388
f 388 174 390
f 389 388 391
f 390 173 393
f 391 390 394
f 392 391 395
f 393 172 397
f 394 393 398
f 395 394 399
f 396 395 400
f 397 171 402
f 398 397 403
f 399 398 404
f 400 399 405
f 401 400 406
f 402 170 408
f 403 402 409
f 404 403 410
f 405 404 411
f 406 405 412
f 407 406 413
f 408 169 415
f 409 408 416
f 410 409 417
f 411 410 418
f 412 411 419
f 413 412 420
f 414 413 421
f 415 168 423
f 416 415 424
f 417 416 425
f 418 417 426
f 419 418 427
f 420 419 428
f 421 420 429
f 422 421 430
f 423 167 432
f 424 423 433
f 425 424 434
f 426 425 435
f 427 426 436
f 428 427 437
f 429 428 438
f 430 429 439
f 431 430 440
f 442 121 120
f 443 120 119
f 444 442 443
f 445 119 118
f 446 443 445
f 447 444 446
f 448 118 117
f 449 445 448
f 450 446 449
f 451 447 450
f 452 117 116
f 453 448 452
f 454 449 453
f 455 450 454
f 456 451 455
f 457 116 115
f 458 452 457
f 459 453 458
f 460 454 459
f 461 455 460
f 462 456 461
f 463 115 114
f 464 457 463
f 465 458 464
f 466 459 465
f 467 460 466
f 468 461 467
f 469 462 468
f 470 114 113
f 471 463 470
f 472 464 471
f 473 465 472
f 474 466 473
f 475 467 474
f 476 468 475
f 477 469 476
f 478 113 112
f 479 470 478
f 480 471 479
f 481 472 480
f 482 473 481
f 483 474 482
f 484 475 483
f 485 476 484
f 486 477 485
f 487 112 66
f 488 478 487
f 489 479 488
f 490 480 489
f 491 481 490
f 492 482 491
f 493 483 492
f 494 484 493
f 495 485 494
f 496 486 495
f 442 120 443
f 443 119 445
f 444 443 446
f 445 118 448
f 446 445 449
f 447 446 450
f 448 117 452
f 449 448 453
f 450 449 454
f 451 450 455
f 452 116 457
f 453 452 458
f 454 453 459
f 455 454 460
f 456 455 461
f 457 115 463
f 458 457 464
f 459 458 465
f 460 459 466
f 461 460 467
f 462 461 468
f 463 114 470
f 464 463 471
f 465 464 472
f 466 465 473
f 467 466 474
f 468 467 475
f 469 468 476
f 470 113 478
f 471 470 479
f 472 471 480
f 473 472 481
f 474 473 482
f 475 474 483
f 476 475 484
f 477 476 485
f 478 112 487
f 479 478 488
f 480 479 489
f 481 480 490
f 482 481 491
f 483 482 492
f 484 483 493
f 485 484 494
f 486 485 495
f 497 66 65
f 498 65 64
f 499 497 498
f 500 64 63
f 501 498 500
f 502 499 501
f 503 63 62
f 504 500 503
f 505 501 504
f 506 502 505
f 507 62 61
f 508 503 507
f 509 504 508
f 510 505 509
f 511 506 510
f 512 61 60
f 513 507 512
f 514 508 513
f 515 509 514
f 516 510 515
f 517 511 516
f 518 60 59
f 519 512 518
f 520 513 519
f 521 514 520
f 522 515 521
f 523 516 522
f 524 517 523
f 525 59 58
f 526 518 525
f 527 519 526
f 528 520 527
f 529 521 528
f 530 522 529
f 531 523 530
f 532 524 531
f 533 58 57
f 534 525 533
f 535 526 534
f 536 527 535
f 537 528 536
f 538 529 537
f 539 530 538
f 540 531 539
f 541 532 540
f 542 57 56
f 543 533 542
f 544 534 543
f 545 535 544
f 546 536 545
f 547 537 546
f 548 538 547
f 549 539 548
f 550 540 549
f 551 541 550
f 497 65 498
f 498 64 500
f 499 498 501
f 500 63 503
f 501 500 504
f 502 501 505
f 503 62 507
f 504 503 508
f 505 504 509
f 506 505 510
f 507 61 512
f 508 507 513
f 509 508 514
f 510 509 515
f 511 510 516
f 512 60 518
f 513 512 519
f 514 513 520
f 515 514 521
f 516 515 522
f 517 516 523
f 518 59 525
f 519 518 526
f 520 519 527
f 521 520 528
f 522 521 529
f 523 522 530
f 524 523 531
f 525 58 533
f 526 525 534
f 527 526 535
f 528 527 536
f 529 528 537
f 530 529 538
f 531 530 539
f 532 531 540
f 533 57 542
f 534 533 543
f 535 534 544
f 536 535 545
f 537 536 546
f 538 537 547
f 539 538 548
f 540 539 549
f 541 540 550
f 542 56 277
f 552 277 279
f 543 542 552
f 553 279 282
f 554 552 553
f 544 543 554
f 555 282 286
f 556 553 555
f 557 554 556
f 545 544 557
f 558 286 291
f 559 555 558
f 560 556 559
f 561 557 560
f 546 545 561
f 562 291 297
f 563 558 562
f 564 559 563
f 565 560 564
f 566 561 565
f 547 546 566
f 567 297 304
f 568 562 567
f 569 563 568
f 570 564 569
f 571 565 570
f 572 566 571
f 548 547 572
f 573 304 312
f 574 567 573
f 575 568 574
f 576 569 575
f 577 570 576
f 578 571 577
f 579 572 578
f 549 548 579
f 580 312 321
f 581 573 580
f 582 574 581
f 583 575 582
f 584 576 583
f 585 577 584
f 586 578 585
f 587 579 586
f 550 549 587
f 588 321 331
f 589 580 588
f 590 581 589
f 591 582 590
f 592 583 591
f 593 584 592
f 594 585 593
f 595 586 594
f 596 587 595
f 551 550 596
f 542 277 552
f 552 279 553
f 543 552 554
f 553 282 555
f 554 553 556
f 544 554 557
f 555 286 558
f 556 555 559
f 557 556 560
f 545 557 561
f 558 291 562
f 559 558 563
f 560 559 564
f 561 560 565
f 546 561 566
f 562 297 567
f 563 562 568
f 564 563 569
f 565 564 570
f 566 565 571
f 547 566 572
f 567 304 573
f 568 567 574
f 569 568 575
f 570 569 576
f 571 570 577
f 572 571 578
f 548 572 579
f 573 312 580
f 574 573 581
f 575 574 582
f 576 575 583
f 577 576 584
f 578 577 585
f 579 578 586
f 549 579 587
f 580 321 588
f 581 580 589
f 582 581 590
f 583 582 591
f 584 583 592
f 585 584 593
f 586 585 594
f 587 586 595
f 550 587 596
f 322 231 332
f 597 332 334
f 323 322 597
f 598 334 337
f 599 597 598
f 324 323 599
f 600 337 341
f 601 598 600
f 602 599 601
f 325 324 602
f 603 341 346
f 604 600 603
f 605 601 604
f 606 602 605
f 326 325 606
f 607 346 352
f 608 603 607
f 609 604 608
f 610 605 609
f 611 606 610
f 327 326 611
f 612 352 359
f 613 607 612
f 614 608 613
f 615 609 614
f 616 610 615
f 617 611 616
f 328 327 617
f 618 359 367
f 619 612 618
f 620 613 619
f 621 614 620
f 622 615 621
f 623 616 622
f 624 617 623
f 329 328 624
f 625 367 376
f 626 618 625
f 627 619 626
f 628 620 627
f 629 621 628
f 630 622 629
f 631 623 630
f 632 624 631
f 330 329 632
f 633 376 386
f 634 625 633
f 635 626 634
f 636 627 635
f 637 628 636
f 638 629 637
f 639 630 638
f 640 631 639
f 641 632 640
f 331 330 641
f 322 332 597
f 597 334 598
f 323 597 599
f 598 337 600
f 599 598 601
f 324 599 602
f 600 341 603
f 601 600 604
f 602 601 605
f 325 602 606
f 603 346 607
f 604 603 608
f 605 604 609
f 606 605 610
f 326 606 611
f 607 352 612
f 608 607 613
f 609 608 614
f 610 609 615
f 611 610 616
f 327 611 617
f 612 359 618
f 613 612 619
f 614 613 620
f 615 614 621
f 616 615 622
f 617 616 623
f 328 617 624
f 618 367 625
f 619 618 626
f 620 619 627
f 621 620 628
f 622 621 629
f 623 622 630
f 624 623 631
f 329 624 632
f 625 376 633
f 626 625 634
f 627 626 635
f 628 627 636
f 629 628 637
f 630 629 638
f 631 630 639
f 632 631 640
f 330 632 641
f 377 176 387
f 642 387 389
f 378 377 642
f 643 389 392
f 644 642 643
f 379 378 644
f 645 392 396
f 646 643 645
f 647 644 646
f 380 379 647
f 648 396 401
f 649 645 648
f 650 646 649
f 651 647 650
f 381 380 651
f 652 401 407
f 653 648 652
f 654 649 653
f 655 650 654
f 656 651 655
f 382 381 656
f 657 407 414
f 658 652 657
f 659 653 658
f 660 654 659
f 661 655 660
f 662 656 661
f 383 382 662
f 663 414 422
f 664 657 663
f 665 658 664
f 666 659 665
f 667 660 666
f 668 661 667
f 669 662 668
f 384 383 669
f 670 422 431
f 671 663 670
f 672 664 671
f 673 665 672
f 674 666 673
f 675 667 674
f 676 668 675
f 677 669 676
f 385 384 677
f 678 431 441
f 679 670 678
f 680 671 679
f 681 672 680
f 682 673 681
f 683 674 682
f 684 675 683
f 685 676 684
f 686 677 685
f 386 385 686
f 377 387 642
f 642 389 643
f 378 642 644
f 643 392 645
f 644 643 646
f 379 644 647
f 645 396 648
f 646 645 649
f 647 646 650
f 380 647 651
f 648 401 652
f 649 648 653
f 650 649 654
f 651 650 655
f 381 651 656
f 652 407 657
f 653 652 658
f 654 653 659
f 655 654 660
f 656 655 661
f 382 656 662
f 657 414 663
f 658 657 664
f 659 658 665
f 660 659 666
f 661 660 667
f 662 661 668
f 383 662 669
f 663 422 670
f 664 663 671
f 665 664 672
f 666 665 673
f 667 666 674
f 668 667 675
f 669 668 676
f 384 669 677
f 670 431 678
f 671 670 679
f 672 671 680
f 673 672 681
f 674 673 682
f 675 674 683
f 676 675 684
f 677 676 685
f 385 677 686
f 432 121 442
f 687 442 444
f 433 432 687
f 688 444 447
f 689 687 688
f 434 433 689
f 690 447 451
f 691 688 690
f 692 689 691
f 435 434 692
f 693 451 456
f 694 690 693
f 695 691 694
f 696 692 695
f 436 435 696
f 697 456 462
f 698 693 697
f 699 694 698
f 700 695 699
f 701 696 700
f 437 436 701
f 702 462 469
f 703 697 702
f 704 698 703
f 705 699 704
f 706 700 705
f 707 701 706
f 438 437 707
f 708 469 477
f 709 702 708
f 710 703 709
f 711 704 710
f 712 705 711
f 713 706 712
f 714 707 713
f 439 438 714
f 715 477 486
f 716 708 715
f 717 709 716
f 718 710 717
f 719 711 718
f 720 712 719
f 721 713 720
f 722 714 721
f 440 439 722
f 723 486 496
f 724 715 723
f 725 716 724
f 726 717 725
f 727 718 726
f 728 719 727
f 729 720 728
f 730 721 729
f 731 722 730
f 441 440 731
f 432 442 687
f 687 444 688
f 433 687 689
f 688 447 690
f 689 688 691
f 434 689 692
f 690 451 693
f 691 690 694
f 692 691 695
f 435 692 696
f 693 456 697
f 694 693 698
f 695 694 699
f 696 695 700
f 436 696 701
f 697 462 702
f 698 697 703
f 699 698 704
f 700 699 705
f 701 700 706
f 437 701 707
f 702 469 708
f 703 702 709
f 704 703 710
f 705 704 711
f 706 705 712
f 707 706 713
f 438 707 714
f 708 477 715
f 709 708 716
f 710 709 717
f 711 710 718
f 712 711 719
f 713 712 720
f 714 713 721
f 439 714 722
f 715 486 723
f 716 715 724
f 717 716 725
f 718 717 726
f 719 718 727
f 720 719 728
f 721 720 729
f 722 721 730
f 440 722 731
f 487 66 497
f 732 497 499
f 488 487 732
f 733 499 502
f 734 732 733
f 489 488 734
f 735 502 506
f 736 733 735
f 737 734 736
f 490 489 737
f 738 506 511
f 739 735 738
f 740 736 739
f 741 737 740
f 491 490 741
f 742 511 517
f 743 738 742
f 744 739 743
f 745 740 744
f 746 741 745
f 492 491 746
f 747 517 524
f 748 742 747
f 749 743 748
f 750 744 749
f 751 745 750
f 752 746 751
f 493 492 752
f 753 524 532
f 754 747 753
f 755 748 754
f 756 749 755
f 757 750 756
f 758 751 757
f 759 752 758
f 494 493 759
f 760 532 541
f 761 753 760
f 762 754 761
f 763 755 762
f 764 756 763
f 765 757 764
f 766 758 765
f 767 759 766
f 495 494 767
f 768 541 551
f 769 760 768
f 770 761 769
f 771 762 770
f 772 763 771
f 773 764 772
f 774 765 773
f 775 766 774
f 776 767 775
f 496 495 776
f 487 497 732
f 732 499 733
f 488 732 734
f 733 502 735
f 734 733 736
f 489 734 737
f 735 506 738
f 736 735 739
f 737 736 740
f 490 737 741
f 738 511 742
f 739 738 743
f 740 739 744
f 741 740 745
f 491 741 746
f 742 517 747
f 743 742 748
f 744 743 749
f 745 744 750
f 746 745 751
f 492 746 752
f 747 524 753
f 748 747 754
f 749 748 755
f 750 749 756
f 751 750 757
f 752 751 758
f 493 752 759
f 753 532 760
f 754 753 761
f 755 754 762
f 756 755 763
f 757 756 764
f 758 757 765
f 759 758 766
f 494 759 767
f 760 541 768
f 761 760 769
f 762 761 770
f 763 762 771
f 764 763 772
f 765 764 773
f 766 765 774
f 767 766 775
f 495 767 776
f 779 777 778
f 781 778 780
f 782 779 781
f 784 780 783
f 785 781 784
f 786 782 785
f 788 783 787
f 789 784 788
f 790 785 789
f 791 786 790
f 793 787 792
f 794 788 793
f 795 789 794
f 796 790 795
f 797 791 796
f 799 792 798
f 800 793 799
f 801 794 800
f 802 795 801
f 803 796 802
f 804 797 803
f 806 798 805
f 807 799 806
f 808 800 807
f 809 801 808
f 810 802 809
f 811 803 810
f 812 804 811
f 814 805 813
f 815 806 814
f 816 807 815
f 817 808 816
f 818 809 817
f 819 810 818
f 820 811 819
f 821 812 820
f 823 813 822
f 824 814 823
f 825 815 824
f 826 816 825
f 827 817 826
f 828 818 827
f 829 819 828
f 830 820 829
f 831 821 830
f 596 822 551
f 595 823 596
f 594 824 595
f 593 825 594
f 592 826 593
f 591 827 592
f 590 828 591
f 589 829 590
f 588 830 589
f 331 831 588
f 779 778 781
f 781 780 784
f 782 781 785
f 784 783 788
f 785 784 789
f 786 785 790
f 788 787 793
f 789 788 794
f 790 789 795
f 791 790 796
f 793 792 799
f 794 793 800
f 795 794 801
f 796 795 802
f 797 796 803
f 799 798 806
f 800 799 807
f 801 800 808
f 802 801 809
f 803 802 810
f 804 803 811
f 806 805 814
f 807 806 815
f 808 807 816
f 809 808 817
f 810 809 818
f 811 810 819
f 812 811 820
f 814 813 823
f 815 814 824
f 816 815 825
f 817 816 826
f 818 817 827
f 819 818 828
f 820 819 829
f 821 820 830
f 823 822 596
f 824 823 595
f 825 824 594
f 826 825 593
f 827 826 592
f 828 827 591
f 829 828 590
f 830 829 589
f 831 830 588
f 778 777 832
f 834 832 833
f 780 778 834
f 836 833 835
f 837 834 836
f 783 780 837
f 839 835 838
f 840 836 839
f 841 837 840
f 787 783 841
f 843 838 842
f 844 839 843
f 845 840 844
f 846 841 845
f 792 787 846
f 848 842 847
f 849 843 848
f 850 844 849
f 851 845 850
f 852 846 851
f 798 792 852
f 854 847 853
f 855 848 854
f 856 849 855
f 857 850 856
f 858 851 857
f 859 852 858
f 805 798 859
f 861 853 860
f 862 854 861
f 863 855 862
f 864 856 863
f 865 857 864
f 866 858 865
f 867 859 866
f 813 805 867
f 869 860 868
f 870 861 869
f 871 862 870
f 872 863 871
f 873 864 872
f 874 865 873
f 875 866 874
f 876 867 875
f 822 813 876
f 776 868 496
f 775 869 776
f 774 870 775
f 773 871 774
f 772 872 773
f 771 873 772
f 770 874 771
f 769 875 770
f 768 876 769
f 551 822 768
f 778 832 834
f 834 833 836
f 780 834 837
f 836 835 839
f 837 836 840
f 783 837 841
f 839 838 843
f 840 839 844
f 841 840 845
f 787 841 846
f 843 842 848
f 844 843 849
f 845 844 850
f 846 845 851
f 792 846 852
f 848 847 854
f 849 848 855
f 850 849 856
f 851 850 857
f 852 851 858
f 798 852 859
f 854 853 861
f 855 854 862
f 856 855 863
f 857 856 864
f 858 857 865
f 859 858 866
f 805 859 867
f 861 860 869
f 862 861 870
f 863 862 871
f 864 863 872
f 865 864 873
f 866 865 874
f 867 866 875
f 813 867 876
f 869 868 776
f 870 869 775
f 871 870 774
f 872 871 773
f 873 872 772
f 874 873 771
f 875 874 770
f 876 875 769
f 822 876 768
f 832 777 877
f 879 877 878
f 833 832 879
f 881 878 880
f 882 879 881
f 835 833 882
f 884 880 883
f 885 881 884
f 886 882 885
f 838 835 886
f 888 883 887
f 889 884 888
f 890 885 889
f 891 886 890
f 842 838 891
f 893 887 892
f 894 888 893
f 895 889 894
f 896 890 895
f 897 891 896
f 847 842 897
f 899 892 898
f 900 893 899
f 901 894 900
f 902 895 901
f 903 896 902
f 904 897 903
f 853 847 904
f 906 898 905
f 907 899 906
f 908 900 907
f 909 901 908
f 910 902 909
f 911 903 910
f 912 904 911
f 860 853 912
f 914 905 913
f 915 906 914
f 916 907 915
f 917 908 916
f 918 909 917
f 919 910 918
f 920 911 919
f 921 912 920
f 868 860 921
f 731 913 441
f 730 914 731
f 729 915 730
f 728 916 729
f 727 917 728
f 726 918 727
f 725 919 726
f 724 920 725
f 723 921 724
f 496 868 723
f 832 877 879
f 879 878 881
f 833 879 882
f 881 880 884
f 882 881 885
f 835 882 886
f 884 883 888
f 885 884 889
f 886 885 890
f 838 886 891
f 888 887 893
f 889 888 894
f 890 889 895
f 891 890 896
f 842 891 897
f 893 892 899
f 894 893 900
f 895 894 901
f 896 895 902
f 897 896 903
f 847 897 904
f 899 898 906
f 900 899 907
f 901 900 908
f 902 901 909
f 903 902 910
f 904 903 911
f 853 904 912
f 906 905 914
f 907 906 915
f 908 907 916
f 909 908 917
f 910 909 918
f 911 910 919
f 912 911 920
f 860 912 921
f 914 913 731
f 915 914 730
f 916 915 729
f 917 916 728
f 918 917 727
f 919 918 726
f 920 919 725
f 921 920 724
f 868 921 723
f 877 777 922
f 924 922 923
f 878 877 924
f 926 923 925
f 927 924 926
f 880 878 927
f 929 925 928
f 930 926 929
f 931 927 930
f 883 880 931
f 933 928 932
f 934 929 933
f 935 930 934
f 936 931 935
f 887 883 936
f 938 932 937
f 939 933 938
f 940 934 939
f 941 935 940
f 942 936 941
f 892 887 942
f 944 937 943
f 945 938 944
f 946 939 945
f 947 940 946
f 948 941 947
f 949 942 948
f 898 892 949
f 951 943 950
f 952 944 951
f 953 945 952
f 954 946 953
f 955 947 954
f 956 948 955
f 957 949 956
f 905 898 957
f 959 950 958
f 960 951 959
f 961 952 960
f 962 953 961
f 963 954 962
f 964 955 963
f 965 956 964
f 966 957 965
f 913 905 966
f 686 958 386
f 685 959 686
f 684 960 685
f 683 961 684
f 682 962 683
f 681 963 682
f 680 964 681
f 679 965 680
f 678 966 679
f 441 913 678
f 877 922 924
f 924 923 926
f 878 924 927
f 926 925 929
f 927 926 930
f 880 927 931
f 929 928 933
f 930 929 934
f 931 930 935
f 883 931 936
f 933 932 938
f 934 933 939
f 935 934 940
f 936 935 941
f 887 936 942
f 938 937 944
f 939 938 945
f 940 939 946
f 941 940 947
f 942 941 948
f 892 942 949
f 944 943 951
f 945 944 952
f 946 945 953
f 947 946 954
f 948 947 955
f 949 948 956
f 898 949 957
f 951 950 959
f 952 951 960
f 953 952 961
f 954 953 962
f 955 954 963
f 956 955 964
f 957 956 965
f 905 957 966
f 959 958 686
f 960 959 685
f 961 960 684
f 962 961 683
f 963 962 682
f 964 963 681
f 965 964 680
f 966 965 679
f 913 966 678
f 922 777 779
f 967 779 782
f 923 922 967
f 968 782 786
f 969 967 968
f 925 923 969
f 970 786 791
f 971 968 970
f 972 969 971
f 928 925 972
f 973 791 797
f 974 970 973
f 975 971 974
f 976 972 975
f 932 928 976
f 977 797 804
f 978 973 977
f 979 974 978
f 980 975 979
f 981 976 980
f 937 932 981
f 982 804 812
f 983 977 982
f 984 978 983
f 985 979 984
f 986 980 985
f 987 981 986
f 943 937 987
f 988 812 821
f 989 982 988
f 990 983 989
f 991 984 990
f 992 985 991
f 993 986 992
f 994 987 993
f 950 943 994
f 995 821 831
f 996 988 995
f 997 989 996
f 998 990 997
f 999 991 998
f 1000 992 999
f 1001 993 1000
f 1002 994 1001
f 958 950 1002
f 641 831 331
f 640 995 641
f 639 996 640
f 638 997 639
f 637 998 638
f 636 999 637
f 635 1000 636
f 634 1001 635
f 633 1002 634
f 386 958 633
f 922 779 967
f 967 782 968
f 923 967 969
f 968 786 970
f 969 968 971
f 925 969 972
f 970 791 973
f 971 970 974
f 972 971 975
f 928 972 976
f 973 797 977
f 974 973 978
f 975 974 979
f 976 975 980
f 932 976 981
f 977 804 982
f 978 977 983
f 979 978 984
f 980 979 985
f 981 980 986
f 937 981 987
f 982 812 988
f 983 982 989
f 984 983 990
f 985 984 991
f 986 985 992
f 987 986 993
f 943 987 994
f 988 821 995
f 989 988 996
f 990 989 997
f 991 990 998
f 992 991 999
f 993 992 1000
f 994 993 1001
f 950 994 1002
f 995 831 641
f 996 995 640
f 997 996 639
f 998 997 638
f 999 998 637
f 1000 999 636
f 1001 1000 635
f 1002 1001 634
f 958 1002 633
